/* XPM */
static char *_fba8e9419da430dbf7e7013df71889bzhF0XqKIua64lr8T[] = {
/* columns rows colors chars-per-pixel */
"16 16 21 1 ",
"  c None",
". c #070707",
"X c #96523A",
"o c #ECB686",
"O c #9E9E96",
"+ c #4C4C4C",
"@ c #FFFAE9",
"# c #BD774F",
"$ c #989898",
"% c white",
"& c #591D1D",
"* c #D2D2D2",
"= c #4A082A",
"- c #5E5B4F",
"; c #61113A",
": c #9A1014",
"> c #EDA769",
", c #DF6242",
"< c #D10007",
"1 c #F6CE9D",
"2 c gray84",
/* pixels */
"      ....      ",
"     .XooX.     ",
"    .Ooooo+.    ",
"    .@#oo#$.    ",
"    .%&XX&$.    ",
"    .O@%%*O.    ",
"   .O=***O=-.   ",
"  .%;@@;::;=O.  ",
"  .%@%%>,,,:O.  ",
"  .*@%%<<<<,O.  ",
"  .*,%>11>,,O.  ",
"  .O:*<<<<<:O.  ",
"  .O;*:<<<:;-.  ",
"   .OO;::;=O.   ",
"    .O%%**O.    ",
"     ......     "
};
