/* XPM */
static char *e08503a0352544b7b003942d0543a8b7n1Pp0iuLxpIbya2m[] = {
/* columns rows colors chars-per-pixel */
"16 16 14 1 ",
"  c None",
". c #070707",
"X c #9E9E96",
"o c #835835",
"O c #B38047",
"+ c #D7D7D7",
"@ c #D09F69",
"# c #767676",
"$ c gray94",
"% c #C1C1C1",
"& c #452E25",
"* c #58362A",
"= c #6E492F",
"- c gray84",
/* pixels */
"                ",
"  ............  ",
" .XXoOOOOOOoXX. ",
" .++O@@@@@@O++. ",
".#$$oOOOOOOo$$#.",
".X++O@@@@@@O++X.",
".+XXoOOOOOOoXX+.",
".+##oo$$$$oo##+.",
".$$$$$%%%%$$$$$.",
".XXXX#%&&%#XXXX.",
" .##**XXXX**##. ",
" .XX========XX. ",
" .XX********XX. ",
" .##========##. ",
" .............. ",
"                "
};
