/* XPM */
static char *a8cb7b0858714ef9a066dcde9c09ef96[] = {
/* columns rows colors chars-per-pixel */
"16 16 19 1 ",
"  c None",
". c black",
"X c #040404",
"o c #1E1E1E",
"O c #3F3013",
"+ c #002E27",
"@ c gray21",
"# c #004B3F",
"$ c #5D4717",
"% c #007966",
"& c #4D4C4B",
"* c #7D7B76",
"= c #84482A",
"- c #D97F40",
"; c #F6A954",
": c #00B49D",
"> c #A29E96",
", c #BEBBB5",
"< c gray91",
/* pixels */
" ..  ......  .. ",
" .:..@&**&@..:. ",
" .%+o&&>>&&o+%. ",
" .#%@@&>>&@@%#. ",
"  .#&@@**@@&#.  ",
"  .&*>>,,>>*&.  ",
"  .o>>,,,,>>o.  ",
"   .&@@&&@@&.   ",
"   .*<X**X<*.   ",
"   X@&&;;&&@X   ",
"  X**@====@**X  ",
" X;;X&****&X;;X ",
" X;-X&&&&&&X-;X ",
"  XXX@&&&&@XXX  ",
"    XOOXXOOX    ",
"    X$$XX$$X    "
};
